<?xml version="1.0" encoding="UTF-8"?>
<!DOCTYPE svg PUBLIC "-//W3C//DTD SVG 1.1//EN" "http://www.w3.org/Graphics/SVG/1.1/DTD/svg11.dtd">
<!-- Creator: CorelDRAW X7 -->
<svg xmlns="http://www.w3.org/2000/svg" xml:space="preserve" width="100%" height="100%" version="1.1" style="shape-rendering:geometricPrecision; text-rendering:geometricPrecision; image-rendering:optimizeQuality; fill-rule:evenodd; clip-rule:evenodd"
viewBox="0 0 847 333"
 xmlns:xlink="http://www.w3.org/1999/xlink">
 <defs>
  <style type="text/css">
   <![CDATA[
    .fil1 {fill:black;fill-rule:nonzero}
    .fil0 {fill:#6962F3;fill-rule:nonzero}
   ]]>
  </style>
 </defs>
 <g id="Layer_x0020_1">
  <metadata id="CorelCorpID_0Corel-Layer"/>
  <polygon class="fil0" points="61,202 61,133 75,133 75,190 104,190 104,202 "/>
  <path id="1" class="fil0" d="M148 202l-3 -7 0 0c-2,3 -5,5 -8,6 -2,2 -5,2 -10,2 -5,0 -9,-1 -12,-4 -3,-3 -4,-7 -4,-13 0,-5 2,-9 6,-12 4,-3 10,-4 18,-5l9 0 0 -2c0,-6 -3,-8 -8,-8 -5,0 -10,1 -15,4l-5 -10c6,-3 13,-5 20,-5 7,0 13,2 17,5 3,3 5,8 5,14l0 35 -10 0zm-4 -24l-6 0c-4,0 -7,1 -9,2 -2,2 -3,4 -3,6 0,5 2,7 7,7 3,0 6,-1 8,-3 2,-2 3,-5 3,-8l0 -4z"/>
  <path id="2" class="fil0" d="M202 203c-6,0 -11,-2 -14,-7l-1 0c0,5 1,7 1,8l0 22 -15 0 0 -77 12 0 2 7 1 0c3,-5 8,-8 15,-8 6,0 11,3 14,7 4,5 6,12 6,21 0,5 -1,10 -3,14 -1,5 -4,8 -7,10 -3,2 -7,3 -11,3zm-4 -43c-4,0 -6,1 -8,3 -1,2 -2,6 -2,11l0 1c0,6 1,10 2,13 2,2 5,3 8,3 7,0 10,-5 10,-16 0,-5 -1,-9 -2,-11 -2,-3 -5,-4 -8,-4z"/>
  <path id="3" class="fil0" d="M257 192c3,0 6,-1 9,-2l0 11c-3,1 -8,2 -13,2 -6,0 -10,-1 -13,-4 -2,-3 -4,-8 -4,-13l0 -26 -7 0 0 -6 8 -5 5 -11 9 0 0 11 15 0 0 11 -15 0 0 26c0,2 0,3 1,4 2,1 3,2 5,2z"/>
  <path id="4" class="fil0" d="M288 176c0,5 1,9 3,11 2,3 5,5 8,5 4,0 7,-2 9,-4 1,-3 2,-7 2,-12 0,-6 -1,-10 -2,-12 -2,-3 -5,-4 -9,-4 -4,0 -6,1 -8,4 -2,2 -3,6 -3,12zm37 0c0,8 -2,15 -7,20 -4,5 -11,7 -19,7 -5,0 -9,-1 -13,-3 -4,-2 -7,-6 -9,-10 -2,-4 -3,-9 -3,-14 0,-9 2,-16 6,-21 5,-4 11,-7 20,-7 5,0 9,1 13,3 4,3 7,6 9,10 2,4 3,9 3,15z"/>
  <path id="5" class="fil0" d="M366 203c-6,0 -11,-2 -14,-7l-1 0c0,5 1,7 1,8l0 22 -15 0 0 -77 12 0 2 7 1 0c3,-5 8,-8 15,-8 6,0 11,3 14,7 4,5 6,12 6,21 0,5 -1,10 -3,14 -1,5 -4,8 -7,10 -3,2 -7,3 -11,3zm-4 -43c-4,0 -6,1 -8,3 -1,2 -2,6 -2,11l0 1c0,6 0,10 2,13 2,2 4,3 8,3 7,0 10,-5 10,-16 0,-5 -1,-9 -2,-11 -2,-3 -5,-4 -8,-4z"/>
  <path id="6" class="fil1" d="M414 164l5 0c5,0 8,-1 11,-3 2,-1 3,-4 3,-7 0,-3 -1,-6 -4,-7 -2,-1 -5,-2 -10,-2l-5 0 0 19zm0 12l0 26 -14 0 0 -69 20 0c9,0 16,2 21,5 4,3 7,9 7,16 0,4 -1,7 -4,11 -2,3 -5,5 -9,7 10,16 17,26 20,30l-16 0 -17 -26 -8 0z"/>
  <path id="7" class="fil1" d="M497 202l-3 -7 -1 0c-2,3 -5,5 -7,6 -3,2 -6,2 -10,2 -5,0 -9,-1 -12,-4 -3,-3 -5,-7 -5,-13 0,-5 2,-9 6,-12 4,-3 10,-4 18,-5l9 0 0 -2c0,-6 -3,-8 -8,-8 -4,0 -9,1 -15,4l-5 -10c6,-3 13,-5 21,-5 7,0 12,2 16,5 4,3 6,8 6,14l0 35 -10 0zm-5 -24l-5 0c-5,0 -8,1 -10,2 -2,2 -3,4 -3,6 0,5 3,7 7,7 4,0 6,-1 8,-3 2,-2 3,-5 3,-8l0 -4z"/>
  <path id="8" class="fil1" d="M538 203c-6,0 -11,-2 -14,-7 -4,-5 -6,-12 -6,-20 0,-9 2,-16 6,-21 3,-4 8,-7 15,-7 6,0 12,3 15,8l0 0c0,-4 -1,-8 -1,-11l0 -17 15 0 0 74 -11 0 -3 -7 -1 0c-3,6 -8,8 -15,8zm5 -11c4,0 7,-1 9,-4 1,-2 2,-5 2,-11l0 -1c0,-6 0,-10 -2,-12 -2,-3 -5,-4 -9,-4 -3,0 -6,1 -7,4 -2,3 -3,7 -3,12 0,5 1,9 3,12 1,2 4,4 7,4z"/>
  <path id="9" class="fil1" d="M617 202l-3 -7 0 0c-3,3 -5,5 -8,6 -3,2 -6,2 -10,2 -5,0 -9,-1 -12,-4 -3,-3 -4,-7 -4,-13 0,-5 2,-9 5,-12 4,-3 10,-4 18,-5l9 0 0 -2c0,-6 -2,-8 -8,-8 -4,0 -9,1 -15,4l-5 -10c7,-3 13,-5 21,-5 7,0 12,2 16,5 4,3 6,8 6,14l0 35 -10 0zm-5 -24l-5 0c-4,0 -7,1 -10,2 -2,2 -3,4 -3,6 0,5 3,7 7,7 4,0 6,-1 8,-3 2,-2 3,-5 3,-8l0 -4z"/>
  <path id="10" class="fil1" d="M671 148c2,0 4,0 5,1l-1 13c-1,0 -2,0 -4,0 -5,0 -8,1 -11,3 -2,3 -4,6 -4,10l0 27 -14 0 0 -53 11 0 2 9 1 0c1,-3 3,-5 6,-7 3,-2 6,-3 9,-3z"/>
  <path id="11" class="fil1" d="M684 195c0,-2 1,-4 2,-6 1,-1 4,-2 6,-2 3,0 5,1 6,2 2,2 2,4 2,6 0,3 0,5 -2,6 -1,2 -3,2 -6,2 -2,0 -4,0 -6,-2 -1,-1 -2,-3 -2,-6z"/>
  <path id="12" class="fil1" d="M713 135c0,-4 3,-7 8,-7 5,0 8,3 8,7 0,3 -1,4 -2,6 -1,1 -3,2 -6,2 -5,0 -8,-3 -8,-8zm15 67l-14 0 0 -53 14 0 0 53z"/>
  <path id="13" class="fil1" d="M792 202l-14 0 0 -31c0,-4 -1,-6 -2,-8 -2,-2 -4,-3 -7,-3 -4,0 -7,1 -8,4 -2,2 -3,7 -3,13l0 25 -15 0 0 -53 11 0 2 7 1 0c2,-3 4,-5 7,-6 3,-1 6,-2 9,-2 7,0 11,2 14,5 4,4 5,8 5,15l0 34z"/>
 </g>
</svg>
