<?xml version="1.0" encoding="UTF-8"?>
<!DOCTYPE svg PUBLIC "-//W3C//DTD SVG 1.1//EN" "http://www.w3.org/Graphics/SVG/1.1/DTD/svg11.dtd">
<!-- Creator: CorelDRAW X7 -->
<svg xmlns="http://www.w3.org/2000/svg" xml:space="preserve" width="100%" height="100%" version="1.1" style="shape-rendering:geometricPrecision; text-rendering:geometricPrecision; image-rendering:optimizeQuality; fill-rule:evenodd; clip-rule:evenodd"
viewBox="0 0 2417 667"
 xmlns:xlink="http://www.w3.org/1999/xlink">
 <defs>
  <style type="text/css">
   <![CDATA[
    .fil0 {fill:black;fill-rule:nonzero}
   ]]>
  </style>
 </defs>
 <g id="Layer_x0020_1">
  <metadata id="CorelCorpID_0Corel-Layer"/>
  <path class="fil0" d="M209 247l0 52 -45 0 0 99c0,20 1,32 2,35 0,3 2,6 5,8 3,2 7,4 11,4 6,0 15,-3 26,-7l6 51c-15,6 -32,9 -51,9 -12,0 -22,-2 -32,-6 -9,-3 -16,-9 -20,-15 -5,-6 -8,-15 -9,-25 -2,-8 -2,-23 -2,-46l0 -107 -30 0 0 -52 30 0 0 -48 64 -39 0 87 45 0z"/>
  <path id="1" class="fil0" d="M318 154l0 125c21,-25 46,-37 75,-37 15,0 29,3 41,8 12,6 21,13 27,21 6,9 10,19 13,29 2,11 3,27 3,49l0 143 -65 0 0 -129c0,-26 -1,-42 -3,-49 -3,-7 -7,-12 -14,-16 -6,-4 -14,-6 -23,-6 -11,0 -21,2 -29,7 -9,6 -15,13 -19,24 -4,10 -6,26 -6,47l0 122 -65 0 0 -338 65 0z"/>
  <path id="2" class="fil0" d="M591 323l-59 -11c7,-24 18,-41 34,-53 16,-11 40,-17 72,-17 29,0 51,3 65,10 14,7 24,16 30,26 5,11 8,30 8,58l-1 76c0,21 1,37 3,47 2,11 6,22 12,33l-64 0c-2,-4 -4,-10 -6,-19 -1,-4 -2,-6 -3,-7 -11,11 -23,19 -35,24 -13,6 -26,8 -40,8 -25,0 -45,-6 -60,-20 -14,-14 -22,-31 -22,-52 0,-14 4,-26 10,-37 7,-11 16,-19 28,-25 12,-6 29,-11 52,-15 30,-6 51,-11 63,-16l0 -6c0,-13 -4,-22 -10,-27 -6,-6 -18,-8 -35,-8 -11,0 -20,2 -27,6 -6,5 -11,13 -15,25zm87 52c-9,3 -22,6 -40,10 -18,4 -30,8 -35,11 -9,6 -13,14 -13,23 0,9 4,17 10,24 7,6 16,10 26,10 12,0 23,-4 34,-12 7,-6 13,-13 15,-21 2,-6 3,-16 3,-32l0 -13z"/>
  <path id="3" class="fil0" d="M1028 492l-65 0 0 -125c0,-26 -1,-43 -4,-51 -3,-8 -7,-14 -13,-18 -7,-4 -14,-6 -23,-6 -11,0 -22,3 -31,9 -9,6 -15,14 -18,24 -3,10 -5,29 -5,56l0 111 -65 0 0 -245 60 0 0 36c22,-27 49,-41 81,-41 15,0 28,3 40,8 12,5 21,11 27,19 6,8 10,17 12,28 3,10 4,24 4,43l0 152z"/>
  <path id="4" class="fil0" d="M1142 323l-59 -11c7,-24 18,-41 34,-53 16,-11 40,-17 72,-17 29,0 51,3 65,10 14,7 24,16 30,26 5,11 8,30 8,58l-1 76c0,21 1,37 4,47 2,11 5,22 11,33l-64 0c-2,-4 -4,-10 -6,-19 -1,-4 -2,-6 -3,-7 -11,11 -22,19 -35,24 -13,6 -26,8 -40,8 -25,0 -45,-6 -60,-20 -14,-14 -21,-31 -21,-52 0,-14 3,-26 9,-37 7,-11 16,-19 28,-25 12,-6 29,-11 52,-15 30,-6 51,-11 63,-16l0 -6c0,-13 -3,-22 -10,-27 -6,-6 -17,-8 -35,-8 -11,0 -20,2 -27,6 -6,5 -11,13 -15,25zm87 52c-9,3 -22,6 -40,10 -18,4 -30,8 -35,11 -8,6 -13,14 -13,23 0,9 4,17 10,24 7,6 16,10 26,10 12,0 23,-4 34,-12 7,-6 13,-13 15,-21 2,-6 3,-16 3,-32l0 -13z"/>
  <polygon id="5" class="fil0" points="1356,492 1356,154 1421,154 1421,492 "/>
  <path id="6" class="fil0" d="M1456 247l69 0 59 174 57 -174 67 0 -86 236 -16 43c-5,14 -11,25 -16,32 -5,8 -11,14 -18,19 -6,4 -15,8 -25,10 -9,3 -20,4 -33,4 -12,0 -24,-1 -37,-4l-5 -50c10,2 19,3 27,3 15,0 27,-4 34,-13 7,-9 13,-21 17,-34l-94 -246z"/>
  <path id="7" class="fil0" d="M1727 423l65 -10c3,13 8,22 17,29 8,6 20,10 35,10 17,0 30,-3 38,-10 6,-4 9,-10 9,-17 0,-5 -2,-9 -5,-12 -3,-3 -10,-6 -22,-9 -52,-11 -85,-22 -99,-31 -19,-14 -29,-32 -29,-56 0,-21 8,-39 25,-53 17,-15 43,-22 78,-22 34,0 58,5 75,16 16,11 27,28 33,49l-60 11c-3,-9 -8,-17 -15,-22 -8,-5 -18,-7 -32,-7 -17,0 -29,2 -37,7 -5,3 -7,8 -7,13 0,5 2,9 6,12 6,4 26,10 61,18 35,8 59,18 73,29 13,11 20,28 20,48 0,23 -9,42 -28,58 -19,16 -47,24 -84,24 -33,0 -59,-6 -79,-20 -19,-13 -32,-32 -38,-55z"/>
  <path id="8" class="fil0" d="M2013 214l0 -60 64 0 0 60 -64 0zm0 278l0 -245 64 0 0 245 -64 0z"/>
  <path id="9" class="fil0" d="M2121 423l65 -10c3,13 8,22 17,29 8,6 20,10 35,10 17,0 30,-3 38,-10 6,-4 9,-10 9,-17 0,-5 -2,-9 -5,-12 -3,-3 -11,-6 -22,-9 -52,-11 -85,-22 -99,-31 -20,-14 -29,-32 -29,-56 0,-21 8,-39 25,-53 17,-15 43,-22 78,-22 33,0 58,5 75,16 16,11 27,28 33,49l-61 11c-2,-9 -7,-17 -15,-22 -7,-5 -17,-7 -31,-7 -17,0 -29,2 -37,7 -5,3 -7,8 -7,13 0,5 2,9 6,12 6,4 26,10 61,18 35,8 59,18 72,29 14,11 21,28 21,48 0,23 -10,42 -28,58 -19,16 -47,24 -84,24 -33,0 -60,-6 -79,-20 -20,-13 -32,-32 -38,-55z"/>
 </g>
</svg>
