<?xml version="1.0" standalone="no"?>
<!DOCTYPE svg PUBLIC "-//W3C//DTD SVG 20010904//EN"
 "http://www.w3.org/TR/2001/REC-SVG-20010904/DTD/svg10.dtd">
<svg version="1.0" xmlns="http://www.w3.org/2000/svg"
 width="435.000000pt" height="120.000000pt" viewBox="0 0 435.000000 120.000000"
 preserveAspectRatio="xMidYMid meet">

<g transform="translate(0.000000,120.000000) scale(0.100000,-0.100000)"
fill="#000000" stroke="none">
<path d="M516 892 c-3 -3 -6 -135 -6 -294 l0 -288 74 0 74 0 4 141 c3 135 4
142 27 160 13 11 34 19 45 17 36 -5 46 -44 46 -185 l0 -133 76 0 76 0 -4 168
c-3 185 -13 218 -68 247 -54 28 -190 10 -190 -25 0 -6 -4 -10 -8 -10 -4 0 -8
46 -8 103 l1 102 -67 2 c-36 1 -69 -1 -72 -5z"/>
<path d="M2516 892 c-3 -3 -6 -135 -6 -294 l0 -288 75 0 75 0 -2 293 -3 292
-67 2 c-36 1 -69 -1 -72 -5z"/>
<path d="M3652 888 c-17 -17 -15 -74 4 -92 19 -19 104 -22 122 -4 7 7 12 28
12 48 0 20 -5 41 -12 48 -16 16 -110 16 -126 0z"/>
<path d="M212 773 c-13 -30 -32 -55 -52 -66 -26 -16 -31 -24 -28 -50 2 -24 8
-33 26 -35 21 -3 22 -7 22 -107 0 -127 16 -176 65 -199 38 -18 103 -21 158 -5
37 10 37 10 37 63 l0 54 -46 -6 c-33 -3 -49 -1 -55 9 -5 8 -9 53 -9 101 l0 87
51 3 52 3 0 55 0 55 -49 1 -49 1 -3 42 -3 41 -48 0 c-48 0 -49 0 -69 -47z"/>
<path d="M1173 739 c-55 -5 -123 -25 -123 -36 0 -4 40 -85 45 -91 1 -1 21 5
45 13 74 26 120 16 120 -27 0 -14 -8 -18 -40 -18 -76 0 -143 -21 -177 -55 -29
-29 -33 -40 -33 -84 0 -92 45 -141 129 -141 48 0 88 14 117 41 21 20 21 20 38
-6 14 -21 24 -25 66 -25 l50 0 0 161 c0 175 -9 213 -57 244 -33 22 -105 32
-180 24z m85 -276 c-4 -46 -43 -72 -78 -53 -47 25 -5 89 58 90 21 0 23 -4 20
-37z"/>
<path d="M2173 739 c-55 -5 -123 -25 -123 -36 0 -4 40 -85 45 -91 1 -1 21 5
45 13 74 26 120 16 120 -27 0 -14 -8 -18 -40 -18 -76 0 -143 -21 -177 -55 -29
-29 -33 -40 -33 -84 0 -92 45 -141 129 -141 48 0 88 14 117 41 21 20 21 20 38
-6 14 -21 24 -25 66 -25 l50 0 0 161 c0 175 -9 213 -57 244 -33 22 -105 32
-180 24z m85 -276 c-4 -46 -43 -72 -78 -53 -47 25 -5 89 58 90 21 0 23 -4 20
-37z"/>
<path d="M1516 732 c-3 -3 -6 -99 -6 -214 l0 -208 74 0 74 0 4 139 c3 120 6
142 22 160 25 27 61 27 80 -1 13 -18 16 -52 16 -160 l0 -138 76 0 76 0 -4 168
c-3 185 -13 218 -68 247 -40 21 -134 19 -171 -2 -16 -10 -29 -21 -29 -25 0
-17 -21 -7 -29 14 -7 19 -16 23 -59 24 -28 1 -53 -1 -56 -4z"/>
<path d="M2716 731 c-2 -3 33 -99 78 -212 76 -188 82 -208 70 -231 -15 -29
-65 -53 -94 -45 -18 5 -20 0 -20 -54 l0 -59 61 0 c73 0 120 20 155 65 21 28
199 480 206 525 2 12 -12 15 -69 17 l-72 2 -30 -97 c-16 -53 -35 -116 -42
-140 l-12 -43 -41 138 -41 138 -73 1 c-40 1 -74 -2 -76 -5z"/>
<path d="M3293 726 c-44 -20 -66 -58 -65 -112 0 -64 22 -90 110 -132 44 -22
77 -44 77 -52 0 -27 -102 -24 -176 5 -11 4 -14 -7 -13 -51 2 -73 12 -79 139
-79 82 0 106 4 132 20 44 26 67 76 60 132 -6 58 -40 93 -123 128 -98 41 -82
76 22 49 31 -8 59 -12 62 -9 3 2 13 22 23 44 l17 39 -27 12 c-40 20 -199 24
-238 6z"/>
<path d="M3646 732 c-3 -3 -6 -99 -6 -214 l0 -208 75 0 75 0 -2 213 -3 212
-67 2 c-36 1 -69 -1 -72 -5z"/>
<path d="M3953 726 c-44 -20 -66 -58 -65 -112 0 -64 22 -90 110 -132 44 -22
77 -44 77 -52 0 -27 -102 -24 -176 5 -11 4 -14 -7 -13 -51 2 -73 12 -79 139
-79 82 0 106 4 132 20 44 26 67 76 60 132 -6 58 -40 93 -123 128 -98 41 -82
76 22 49 31 -8 59 -12 62 -9 3 2 13 22 23 44 l17 39 -27 12 c-40 20 -199 24
-238 6z"/>
</g>
</svg>
