<?xml version="1.0" encoding="UTF-8"?>
<!DOCTYPE svg PUBLIC "-//W3C//DTD SVG 1.1//EN" "http://www.w3.org/Graphics/SVG/1.1/DTD/svg11.dtd">
<!-- Creator: CorelDRAW X7 -->
<svg xmlns="http://www.w3.org/2000/svg" xml:space="preserve" version="1.1" style="shape-rendering:geometricPrecision; text-rendering:geometricPrecision; image-rendering:optimizeQuality; fill-rule:evenodd; clip-rule:evenodd"
viewBox="0 0 4000 1267"
 xmlns:xlink="http://www.w3.org/1999/xlink">
 <defs>
  <style type="text/css">
   <![CDATA[
    .fil0 {fill:#FFFFFF;fill-rule:nonzero}
   ]]>
  </style>
 </defs>
 <g id="Layer_x0020_1">
  <metadata id="CorelCorpID_0Corel-Layer"/>
  <path class="fil0" d="M372 306c-144,0 -264,112 -264,204 0,74 44,101 103,101 36,0 73,-7 116,-19 43,-13 75,-20 112,-20 34,0 52,12 52,47 0,35 -7,64 -34,89 -45,50 -129,85 -195,85 -32,0 -51,-12 -63,-34 -10,-20 -15,-54 -43,-54 -28,0 -47,22 -47,49 0,28 40,105 147,105 96,0 210,-42 272,-118 31,-36 46,-77 46,-127 0,-75 -54,-110 -125,-110 -42,0 -79,7 -121,20 -44,12 -76,20 -99,20 -22,0 -37,-11 -37,-41 0,-60 80,-130 170,-130 34,0 59,10 68,23 1,16 14,29 48,29 27,0 37,-16 37,-35 0,-35 -66,-84 -143,-84z"/>
  <path id="1" class="fil0" d="M702 323c-32,0 -50,33 -50,75 0,24 11,41 37,41 27,0 50,-29 50,-78 0,-24 -13,-38 -37,-38zm-50 461c-3,4 -10,13 -10,28 0,24 16,39 37,39 26,0 61,-12 61,-41 0,-10 -6,-20 -11,-23l0 -238c2,-5 10,-14 10,-29 0,-16 -23,-38 -42,-38 -51,0 -53,25 -53,48 0,8 3,17 8,22l0 232z"/>
  <path id="2" class="fil0" d="M909 634c54,-50 101,-81 121,-81 11,0 14,5 14,18l0 218c-8,9 -14,21 -14,28 0,23 16,34 40,34 37,0 52,-8 52,-57l0 -160c73,-61 112,-85 132,-85 9,0 14,9 14,20l0 227c-4,3 -8,9 -8,20 0,29 16,35 42,35 23,0 52,-10 52,-35 0,-12 0,-15 -9,-22l0 -281c0,-30 -20,-46 -47,-46 -36,0 -104,39 -176,98l0 -40c0,-37 -18,-58 -50,-58 -42,0 -116,54 -163,95l0 -33c5,-9 5,-17 5,-25 0,-20 -11,-37 -37,-37 -38,0 -54,12 -54,38 0,15 5,24 8,29l0 251c-2,7 -7,14 -7,25 0,30 16,41 48,41 32,0 43,-12 43,-38 0,-9 -3,-16 -6,-22l0 -157z"/>
  <path id="3" class="fil0" d="M1525 538c1,-5 6,-14 6,-23 0,-23 -14,-36 -50,-36 -19,0 -42,10 -42,40 0,10 5,18 9,24l0 489c-4,8 -8,18 -8,32 0,25 19,30 39,30 38,0 54,-11 54,-35 0,-10 -4,-18 -8,-25l0 -195c13,12 29,18 47,18 88,0 219,-96 219,-264 0,-69 -40,-111 -97,-111 -72,0 -119,32 -167,98l-2 0 0 -42zm0 144c19,-33 41,-62 62,-83 39,-41 61,-50 83,-50 30,0 43,25 43,55 0,101 -83,189 -145,189 -18,0 -33,-9 -43,-28l0 -83z"/>
  <path id="4" class="fil0" d="M1863 789c-4,7 -8,14 -8,22 0,26 23,40 49,40 29,0 50,-21 50,-35 0,-9 -5,-17 -14,-25l0 -415c8,-11 13,-22 13,-37 0,-25 -25,-39 -47,-39 -42,0 -52,9 -52,45 0,10 5,21 9,29l0 415z"/>
  <path id="5" class="fil0" d="M2234 477c-109,0 -217,112 -217,266 0,86 53,117 124,117 137,0 209,-98 209,-121 0,-17 -6,-36 -37,-36 -28,0 -44,16 -42,36 -15,22 -63,55 -120,55 -37,0 -58,-16 -58,-57 0,-17 1,-32 6,-45l38 -7c193,-34 219,-68 219,-106 0,-32 -27,-102 -122,-102zm-2 64c36,0 50,22 50,42 0,11 -21,24 -168,50 25,-54 70,-92 118,-92z"/>
  <path id="6" class="fil0" d="M2664 300c-156,0 -255,207 -255,332 0,156 74,230 176,230 89,1 170,-58 207,-97 19,-23 22,-38 22,-51 0,-14 -13,-35 -42,-35 -36,0 -43,25 -44,47 -25,33 -81,66 -132,66 -52,0 -106,-48 -106,-155 0,-105 75,-268 179,-268 38,0 66,12 70,27 4,23 15,33 39,33 25,0 44,-15 44,-44 0,-40 -63,-85 -158,-85z"/>
  <path id="7" class="fil0" d="M3114 607c-175,21 -265,115 -265,188 0,44 34,68 76,68 69,0 127,-29 186,-94l1 0 0 37c-3,6 -7,13 -7,20 0,13 9,26 36,26 25,0 55,-6 55,-31 0,-7 -3,-17 -7,-19l0 -256c0,-47 -33,-75 -75,-75 -76,0 -134,18 -176,46 -18,-3 -39,18 -39,34 0,17 15,39 35,39 25,0 37,-16 35,-23 31,-19 70,-35 115,-35 22,0 30,11 30,32l0 43zm-2 78c0,38 -98,110 -158,110 -17,0 -29,-4 -29,-19 0,-37 77,-104 187,-117l0 26z"/>
  <path id="8" class="fil0" d="M3294 798c-5,4 -10,12 -10,21 0,21 12,32 39,32 45,0 59,-12 59,-37 0,-9 -5,-19 -10,-24l0 -152c42,-51 86,-79 99,-79 7,0 10,9 10,19 -2,6 -3,14 -3,21 0,14 14,23 38,23 28,0 42,-16 42,-38 0,-77 -26,-102 -52,-102 -41,0 -87,32 -133,74l-1 0 0 -30c6,-6 5,-12 5,-18 0,-17 -16,-29 -41,-29 -27,0 -48,15 -48,31l6 22 0 266z"/>
  <path id="9" class="fil0" d="M3788 477c-109,0 -217,112 -217,266 0,86 53,117 124,117 137,0 209,-98 209,-121 0,-17 -6,-36 -37,-36 -28,0 -44,16 -42,36 -15,22 -63,55 -120,55 -36,0 -58,-16 -58,-57 0,-17 2,-32 6,-45l38 -7c193,-34 219,-68 219,-106 0,-32 -27,-102 -122,-102zm-2 64c36,0 50,22 50,42 0,11 -21,24 -167,50 24,-54 69,-92 117,-92z"/>
 </g>
</svg>
